<svg xmlns="http://www.w3.org/2000/svg" width="1000" height="760" viewBox="0 0 1000 760" font-family="monospace">
  <rect width="1000" height="760" fill="#ffffff"/>
  <text x="24" y="34" font-size="20" font-weight="700" fill="#1a1a1a" font-family="sans-serif">BoomBot — MCU 1 Wiring (explicit pins)</text>
  <text x="24" y="54" font-size="12" fill="#777" font-family="sans-serif">Full tables in docs/wiring.md · firmware map in firmware/common/pins.h · board: Wemos LOLIN S3</text>

  <!-- ============ POWER BANK ============ -->
  <rect x="30" y="90" width="180" height="90" rx="8" fill="#fff3d6" stroke="#c8892a" stroke-width="2"/>
  <text x="120" y="115" font-size="13" font-weight="700" fill="#7a5410" text-anchor="middle" font-family="sans-serif">POWER BANK</text>
  <text x="120" y="133" font-size="11" fill="#7a5410" text-anchor="middle">5V 5000mAh 3A</text>
  <text x="120" y="149" font-size="11" fill="#7a5410" text-anchor="middle">always-on</text>
  <text x="120" y="168" font-size="10" fill="#a06010" text-anchor="middle">USB-A #1        USB-A #2</text>

  <!-- power wires -->
  <path d="M85 180 V 240 H 250" fill="none" stroke="#c8892a" stroke-width="2.5"/>
  <text x="120" y="232" font-size="10" fill="#a06010">USB-C: powers Lolin</text>
  <path d="M160 180 V 640 H 620" fill="none" stroke="#d12000" stroke-width="2.5"/>
  <text x="170" y="600" font-size="10" fill="#d12000">5V (red) → L298N VS + VSS</text>
  <path d="M185 180 V 700 H 950 " fill="none" stroke="#111" stroke-width="2.5"/>
  <text x="196" y="694" font-size="11" font-weight="700" fill="#111">GND — COMMON to Lolin + L298N + CAM + all sensors/displays</text>

  <!-- ============ LOLIN S3 ============ -->
  <rect x="250" y="120" width="240" height="470" rx="10" fill="#e4ecfa" stroke="#2456c6" stroke-width="2.5"/>
  <text x="370" y="145" font-size="14" font-weight="700" fill="#173a8a" text-anchor="middle" font-family="sans-serif">ESP32-S3 LOLIN (MCU 1)</text>

  <!-- pin rows: left side = buses, right side = motor -->
  <!-- motor pins on right edge -->
  <g font-size="11" fill="#173a8a">
    <text x="480" y="190" text-anchor="end">GPIO5  ENA (PWM L)</text>
    <text x="480" y="210" text-anchor="end">GPIO6  IN1</text>
    <text x="480" y="230" text-anchor="end">GPIO7  IN2</text>
    <text x="480" y="250" text-anchor="end">GPIO4  ENB (PWM R)</text>
    <text x="480" y="270" text-anchor="end">GPIO12 IN3</text>
    <text x="480" y="290" text-anchor="end">GPIO13 IN4</text>
  </g>
  <!-- bus pins on left edge -->
  <g font-size="11" fill="#173a8a">
    <text x="262" y="330">GPIO10/11  I2C0 SDA/SCL</text>
    <text x="262" y="350">GPIO41/42  ToF XSHUT L/R</text>
    <text x="262" y="370">GPIO1/2    I2C1 SDA/SCL</text>
    <text x="262" y="410">GPIO8      SPI MOSI</text>
    <text x="262" y="430">GPIO40     SPI SCLK</text>
    <text x="262" y="450">GPIO9/39   CS left/right</text>
    <text x="262" y="470">GPIO14/21  DC / RST</text>
    <text x="262" y="510">GPIO17     UART TX → CAM</text>
    <text x="262" y="530">GPIO18     UART RX ← CAM</text>
    <text x="262" y="565">GPIO15     VBAT sense (ADC)</text>
  </g>

  <!-- wire bundle: motor control -->
  <g stroke="#2456c6" stroke-width="2">
    <line x1="490" y1="186" x2="620" y2="186"/>
    <line x1="490" y1="206" x2="620" y2="206"/>
    <line x1="490" y1="226" x2="620" y2="226"/>
    <line x1="490" y1="246" x2="620" y2="246"/>
    <line x1="490" y1="266" x2="620" y2="266"/>
    <line x1="490" y1="286" x2="620" y2="286"/>
  </g>

  <!-- ============ L298N ============ -->
  <rect x="620" y="150" width="200" height="500" rx="10" fill="#fde8e8" stroke="#c03030" stroke-width="2.5"/>
  <text x="720" y="175" font-size="14" font-weight="700" fill="#8a1717" text-anchor="middle" font-family="sans-serif">L298N DRIVER</text>
  <g font-size="11" fill="#8a1717">
    <text x="630" y="190">ENA ← GPIO5</text>
    <text x="630" y="210">IN1 ← GPIO6</text>
    <text x="630" y="230">IN2 ← GPIO7</text>
    <text x="630" y="250">ENB ← GPIO4</text>
    <text x="630" y="270">IN3 ← GPIO12</text>
    <text x="630" y="290">IN4 ← GPIO13</text>
  </g>
  <text x="630" y="330" font-size="10.5" fill="#b04040">⚠ ENA/ENB jumpers OFF</text>
  <text x="630" y="346" font-size="10.5" fill="#b04040">⚠ 5V-EN jumper OFF</text>
  <text x="630" y="362" font-size="10.5" fill="#b04040">   (VSS fed from 5V rail)</text>

  <g font-size="11.5" font-weight="700" fill="#8a1717">
    <text x="630" y="420">OUT1 → L motor +</text>
    <text x="630" y="440">OUT2 → L motor −</text>
    <text x="630" y="480">OUT3 → R motor +</text>
    <text x="630" y="500">OUT4 → R motor −</text>
  </g>
  <g font-size="11" fill="#8a1717">
    <text x="630" y="610">VS  ← 5V rail</text>
    <text x="630" y="626">VSS ← 5V rail</text>
    <text x="630" y="642">GND ← common</text>
  </g>

  <!-- motor wires -->
  <g stroke="#c03030" stroke-width="2.5">
    <line x1="820" y1="425" x2="860" y2="405"/>
    <line x1="820" y1="440" x2="860" y2="440"/>
    <line x1="820" y1="480" x2="860" y2="500"/>
    <line x1="820" y1="497" x2="860" y2="535"/>
  </g>

  <!-- ============ MOTORS + WHEELS ============ -->
  <rect x="860" y="390" width="110" height="66" rx="6" fill="#eef1f7" stroke="#333" stroke-width="2"/>
  <text x="915" y="415" font-size="12" font-weight="700" fill="#333" text-anchor="middle" font-family="sans-serif">N20 LEFT</text>
  <text x="915" y="432" font-size="10" fill="#555" text-anchor="middle">+ = OUT1  − = OUT2</text>
  <text x="915" y="447" font-size="10" fill="#555" text-anchor="middle">shaft → 65mm wheel</text>

  <rect x="860" y="490" width="110" height="66" rx="6" fill="#eef1f7" stroke="#333" stroke-width="2"/>
  <text x="915" y="515" font-size="12" font-weight="700" fill="#333" text-anchor="middle" font-family="sans-serif">N20 RIGHT</text>
  <text x="915" y="532" font-size="10" fill="#555" text-anchor="middle">+ = OUT3  − = OUT4</text>
  <text x="915" y="547" font-size="10" fill="#555" text-anchor="middle">shaft → 65mm wheel</text>

  <text x="915" y="580" font-size="9.5" fill="#777" text-anchor="middle" font-family="sans-serif">wrong direction? swap that</text>
  <text x="915" y="593" font-size="9.5" fill="#777" text-anchor="middle" font-family="sans-serif">motor's 2 wires at OUT</text>

  <!-- ============ SENSOR BUSES (left column) ============ -->
  <rect x="30" y="290" width="190" height="110" rx="8" fill="#e6f4ea" stroke="#2e8b57" stroke-width="2"/>
  <text x="125" y="312" font-size="12" font-weight="700" fill="#1c5c38" text-anchor="middle" font-family="sans-serif">I2C0 (SDA 10 / SCL 11)</text>
  <g font-size="10.5" fill="#1c5c38">
    <text x="40" y="332">MPU-6050        0x68</text>
    <text x="40" y="348">VL53L0X L  0x30 (readdr)</text>
    <text x="40" y="364">VL53L0X R  0x29</text>
    <text x="40" y="380">AS5600 L        0x36</text>
  </g>
  <line x1="220" y1="335" x2="250" y2="335" stroke="#2e8b57" stroke-width="2"/>

  <rect x="30" y="415" width="190" height="52" rx="8" fill="#e6f4ea" stroke="#2e8b57" stroke-width="2"/>
  <text x="125" y="436" font-size="12" font-weight="700" fill="#1c5c38" text-anchor="middle" font-family="sans-serif">I2C1 (SDA 1 / SCL 2)</text>
  <text x="40" y="456" font-size="10.5" fill="#1c5c38">AS5600 R  0x36 (fixed addr)</text>
  <line x1="220" y1="440" x2="250" y2="440" stroke="#2e8b57" stroke-width="2"/>

  <rect x="30" y="482" width="190" height="70" rx="8" fill="#f3e8fb" stroke="#7a3fb0" stroke-width="2"/>
  <text x="125" y="503" font-size="12" font-weight="700" fill="#5a2a85" text-anchor="middle" font-family="sans-serif">SPI — 2× GC9A01</text>
  <g font-size="10.5" fill="#5a2a85">
    <text x="40" y="521">MOSI 8 · SCLK 40 · DC 14</text>
    <text x="40" y="537">RST 21 · CS: L=9  R=39</text>
  </g>
  <line x1="220" y1="515" x2="250" y2="515" stroke="#7a3fb0" stroke-width="2"/>

  <rect x="30" y="567" width="190" height="52" rx="8" fill="#e8f0fb" stroke="#3a6ec0" stroke-width="2"/>
  <text x="125" y="588" font-size="12" font-weight="700" fill="#1d4a94" text-anchor="middle" font-family="sans-serif">UART1 → ESP32-S3-CAM</text>
  <text x="40" y="608" font-size="10.5" fill="#1d4a94">TX 17 → CAM RX · RX 18 ← CAM TX</text>
  <line x1="220" y1="592" x2="250" y2="592" stroke="#3a6ec0" stroke-width="2"/>

  <!-- footer -->
  <text x="24" y="740" font-size="11" fill="#777" font-family="sans-serif">3V3 rail: all sensor + display VCC and BLK · spare GPIOs: 16, 47, 48 · avoided: 0/3/45/46 (strap), 19/20 (USB), 26–37 (flash/PSRAM), 38 (LED), 43/44 (console)</text>
</svg>
